<svg fill="none" height="80" viewBox="0 0 24 24" width="80" xmlns="http://www.w3.org/2000/svg"><path
                d="m19.8801 2h-15.76c-.6 0-1.06.51999-.99 1.10999l1.8 16.22001c.04.4.33.74.72.85l6.08 1.74c.18.05.37.05.55 0l6.08-1.74c.39-.11.67-.45.72-.85l1.8-16.22001c.06-.59-.4-1.10999-1-1.10999zm-3.63 14.08c-.03.3-.25.55-.54.64l-3.5 1c-.07.02-.14.03-.21.03s-.14-.01-.21-.03l-3.5-1c-.26-.07-.46-.28-.52-.54l-.5-2c-.1-.4.14-.81.55-.91.4-.1.81.14.91.55l.4 1.58 2.88.82 2.81-.8.41-3.67h-7.23c-.41 0-.75-.34-.75-.75s.34-.75.75-.75h7.38l.28-2.5-8.16-.01999c-.41 0-.75-.34-.75-.75s.34-.75.75-.75l9 .01999c.21 0 .42.09.56.25s.21.36999.19.57999z"
                fill="#45BF55" /></svg>