<svg height="80" viewBox="0 0 24 24" width="80" xmlns="http://www.w3.org/2000/svg"><path
                d="m19.8803 2h-15.76998c-.6 0-1.05999.52-.98999 1.11l1.79999 16.22c.04.4.33003.74.72003.85l6.07995 1.74c.18.05.3701.05.5501 0l6.0799-1.74c.39-.11.67-.45.72-.85l1.8-16.22c.07-.59-.39-1.11-.99-1.11zm-3.63 5.5h-7.65994l.32996 3h6.82998c.21 0 .41.09.56.25.14.16.21.37.19.58l-.5 5c-.03.31-.2399.56-.5399.65l-3.5 1c-.07.02-.1401.03-.2101.03s-.14-.01-.21-.03l-3.49999-1c-.32-.09-.53997-.39-.53997-.72v-2c0-.41.34-.75.75-.75s.75.34.75.75v1.43l2.74996.79 2.8-.8.37-3.67h-6.66996c-.38 0-.7-.29-.75-.67l-.5-4.5c-.02-.21.04-.42001.19-.58001.14-.16.35-.25.56-.25h8.49996c.41 0 .75.34.75.75s-.34.74001-.75.74001z"
                fill="#45BF55" /></svg>