<svg width="22" height="28" viewBox="0 0 22 28" fill="none" xmlns="http://www.w3.org/2000/svg">
<path d="M2.136 18V0.983999H3.816V10.872L13.2 0.959999H15.048L8.088 8.448L15.408 18H13.512L7.008 9.456L3.816 12.768V18H2.136Z" fill="white"/>
<path d="M9.136 28V10.96H16.192C16.928 10.96 17.6 11.112 18.208 11.416C18.832 11.72 19.368 12.136 19.816 12.664C20.264 13.176 20.616 13.752 20.872 14.392C21.128 15.016 21.256 15.656 21.256 16.312C21.256 17.24 21.048 18.12 20.632 18.952C20.232 19.768 19.664 20.432 18.928 20.944C18.192 21.456 17.328 21.712 16.336 21.712H10.816V28H9.136ZM10.816 20.224H16.264C16.936 20.224 17.52 20.04 18.016 19.672C18.512 19.304 18.896 18.824 19.168 18.232C19.44 17.64 19.576 17 19.576 16.312C19.576 15.608 19.416 14.96 19.096 14.368C18.776 13.776 18.352 13.312 17.824 12.976C17.312 12.624 16.744 12.448 16.12 12.448H10.816V20.224Z" fill="white"/>
</svg>
